<?xml version='1.0' encoding='utf-8'?>
<svg xmlns="http://www.w3.org/2000/svg" viewBox="0 0 600.03 651.76"> <defs> <linearGradient id="a" x1="562.79" x2="587.41" gradientUnits="userSpaceOnUse"> <stop stop-color="#b3b3b3" offset="0"/> <stop stop-color="#f9f9f9" offset=".25"/> <stop stop-color="#f9f9f9" offset=".5"/> <stop stop-color="#b3b3b3" offset="1"/> </linearGradient> </defs> <g transform="matrix(2.2923 0 0 2.2923 -890.6 -1394.1)"> <path d="m446.75 657.61h180.5v33h-180.5z" fill="#e1d5a3"/> <path d="m427.8 674.31c2.4894 2.7725 3.696 4.9704 6.5754 7.3353 2.3116 1.8986 5.9342 4.6726 13.125 3.75 3.1399-0.40286 5.9196-2.2455 8.8794-3.3682l14.121-22.168-31-10z" fill="#e83636" stroke="#000" stroke-linecap="round" stroke-linejoin="round" stroke-width="2.5"/> <path d="m646.66 674.31c-2.4894 2.7725-3.696 4.9704-6.5754 7.3353-2.3116 1.8986-5.9342 4.6726-13.125 3.75-3.1399-0.40286-5.9196-2.2455-8.8794-3.3682l-13.335-21.418-5-20.5 40.75 8.5z" fill="#e83636" stroke="#000" stroke-linecap="round" stroke-linejoin="round" stroke-width="2.5"/> <path d="m437.65 696.28s-8.3468-0.41463-16.92 10.733c-3.9448 5.1292-4.5544 24.202-10.607 24.496-2.2376 0.10883-4.1669-2.6516-4.1669-2.6516l-5.0508 0.50508s3.0217 6.7772 9.9753 6.6923c3.8389-0.0469 7.6468-3.2565 8.7126-6.9448 2.52-8.721 2.6685-12.364 5.3033-18.056 4.0328-8.7135 13.258-9.9753 13.258-9.9753" fill="#eae2bf" stroke="#000" stroke-linecap="round" stroke-linejoin="round" stroke-width="1.5"/> <path d="m405.83 730.12s2.973-2.7415 4.7982-2.6516c2.2972 0.11308 4.87 1.7625 5.6821 3.9143 1.3366 3.5418-7.8502 11.343-8.9651 10.228l0.88388 3.6618c-0.37101 2.4826 11.859-3.6448 12.753-13.511 0.29952-3.3062-3.3873-6.1344-6.3134-7.7024-2.237-1.1987-5.7996-0.67594-8.2075 0.12627-2.6566 0.88509-5.5558 4.7982-5.5558 4.7982l4.1669 3.0305" fill="#eae2bf" stroke="#000" stroke-linecap="round" stroke-linejoin="round" stroke-width="1.5"/> <path d="m412.27 738.58c1.9113-0.11014 4.7218 1.4234 5.177 3.283 0.59589 2.4342-0.79633 4.9666-3.1567 5.8084-2.0466 0.72989-6.0609-2.3991-6.0609-2.3991s-3.9143 2.5254-3.4093 2.5254 6.0984 4.644 9.849 3.6618c4.0194-1.0526 8.108-5.5772 7.8287-9.7227-0.2423-3.5961-3.4041-5.5379-6.8185-6.6923-2.6027-0.87996-5.7202-0.40946-8.2075 0.75762-1.4549 0.68269-3.4093 3.4093-3.4093 3.4093l3.6618 3.283s2.1892-3.7786 4.5457-3.9143z" fill="#eae2bf" stroke="#000" stroke-linecap="round" stroke-linejoin="round" stroke-width="1.5"/> <path d="m416.06 746.29c1.9338 0.1043 3.768 2.3621 3.9143 4.2932 0.18348 2.4212-1.8179 5.0836-4.0406 6.0609-1.7547 0.7715-5.6821-0.88388-5.6821-0.88388s-4.5457 2.1466-2.3991 2.5254 6.0975 2.8411 9.0914 2.0203c2.7281-0.74793 5.0231-3.2302 6.1872-5.8084 1.109-2.4563 1.6334-5.7668 0.25254-8.0812-1.4467-2.4247-4.7531-3.8351-7.5762-3.7881s-5.5 1.9964-7.4499 4.0406c-0.93552 0.98076-1.7678 3.6618-1.7678 3.6618l4.0406 0.75761s3.0178-4.9283 5.4296-4.7982z" fill="#eae2bf" stroke="#000" stroke-linecap="round" stroke-linejoin="round" stroke-width="1.5"/> <path d="m411.89 757.9c2.6946-3.4994 6.1191-7.1936 9.2176-1.6415 2.9187 4.0365-1.4325 12.353-7.0711 6.6923l-3.7881 0.63134s3.9905 5.1034 6.8185 5.0508c3.2335-0.0601 6.3389-2.2444 7.7024-5.177 1.3846-2.9779 1.6048-8.1156-0.37881-10.733-2.1551-2.8436-6.733-3.8756-10.228-3.1567-2.5444 0.52339-5.9346 5.0508-5.9346 5.0508l2.0203 4.0406 2.0203-1.389" fill="#eae2bf" stroke="#000" stroke-linecap="round" stroke-linejoin="round" stroke-width="1.5"/> <path d="m413.91 767.63c-0.69105-5.9137 6.2388-9.9796 8.46-6.0609 0.84453 1.6276-0.88388 5.4296-0.88388 5.4296l4.5457 2.6516s2.0954-5.9452 1.1364-8.7126c-0.8479-2.4467-3.0821-4.664-5.5558-5.4296-2.3269-0.72009-5.1283-0.0226-7.1973 1.2627-1.9951 1.2394-4.1669 5.6821-4.1669 5.6821l-0.63134 2.7779 3.7881 2.1466" fill="#eae2bf" stroke="#000" stroke-linecap="round" stroke-linejoin="round" stroke-width="1.5"/> <path d="m418.83 763.58c2.8593-0.69665 6.1958-0.36474 8.46 1.5152 1.2745 1.0582 1.6895 2.6385 1.7678 4.2932 0.0535 1.132-0.75761 3.283-0.75761 3.283l-3.7881-0.50508c1.3216-2.943-0.47896-7.1745-5.3033-5.177-2.5497 2.0548-2.4957 4.1738-2.2728 7.0711l-2.9755 1.5485s-3.1895-4.4759-0.68628-7.6726c1.5875-2.0272 3.0542-3.7468 5.5558-4.3563z" fill="#eae2bf" stroke="#000" stroke-linecap="round" stroke-linejoin="round" stroke-width="1.5"/> <path d="m418.2 780.63c-3.3804-0.70051-5.858-3.8784-4.0406-7.7024 0.57237-1.1128 1.6627-1.9576 2.7779-2.5254 2.2216-1.131 4.8328-1.6174 7.3236-1.5152 2.2356 0.0918 4.713 0.47109 6.4397 1.894 0.98789 0.81409 1.6946 2.1312 1.7678 3.4093 0.0541 0.9443-1.0102 2.6516-1.0102 2.6516l-3.9143-0.50508s-0.20346-2.2719-1.0102-2.9042c-1.0647-0.8345-2.7332-0.72615-4.0406-0.37881-1.5913 0.42276-3.2431 1.4006-4.0406 2.8411-0.76558 1.3828-0.25254 4.7351-0.25254 4.7351z" fill="#eae2bf" stroke="#000" stroke-linecap="round" stroke-linejoin="round" stroke-width="1.5"/> <path d="m415.8 781.39c-0.2483-1.5654 0.0196-3.3434 0.88389-4.672 1.1714-1.8007 3.2255-3.1161 5.3033-3.6618 2.2482-0.59044 4.7234-0.0531 6.9448 0.63135 1.6565 0.51039 3.4642 1.1708 4.5457 2.5254 0.65651 0.82232 0.8929 1.9782 0.88389 3.0305-0.0109 1.278-0.37448 2.6358-1.1364 3.6618-1.1205 1.5089-4.1669 3.0305-4.672 3.1567s-7.6229 1.1559-10.607-0.75762c-1.2526-0.80334-1.9134-2.4446-2.1466-3.9143z" fill="#eae2bf" stroke="#000" stroke-linecap="round" stroke-linejoin="round" stroke-width="1.5"/> <path d="m434.24 778.86c1.5877 0.71803 2.9144 2.4413 3.1567 4.1669 0.19454 1.3855-0.63644 2.8256-1.5152 3.9143-1.2025 1.4897-4.2931 3.1567-4.7982 3.1567s-6.4417 1.1471-9.4702 0.25254c-3.5856-0.92501-4.6997-4.3185-2.5254-7.3236 1.2913-1.6666 2.7629-2.8594 4.7982-3.4093 3.3408-0.90261 7.2009-2.1836 10.354-0.75761z" fill="#eae2bf" stroke="#000" stroke-linecap="round" stroke-linejoin="round" stroke-width="1.5"/> <path d="m423.38 794.77c-2.2173-3.2523 1.4633-8.8582 4.9245-10.733 3.5173-1.905 10.247-1.8888 11.869 1.7678 1.3537 3.0519-2.6576 6.6764-5.5558 8.3338-3.257 1.8625-9.1245 3.7313-11.238 0.63134z" fill="#eae2bf" stroke="#000" stroke-linecap="round" stroke-linejoin="round" stroke-width="1.5"/> <path d="m431.21 789.22c-3.0906 1.6502-6.8363 6.2032-5.0508 9.2176 1.7375 2.9333 7.6817 2.2785 10.733 0.75761 3.0663-1.5284 8.0833-4.9502 6.6922-8.0812-1.5441-3.4754-9.0196-3.6853-12.374-1.894z" fill="#eae2bf" stroke="#000" stroke-linecap="round" stroke-linejoin="round" stroke-width="1.5"/> <path d="m434.49 794.27c-2.8726 1.7658-5.9634 6.3642-4.1669 9.2176 6.6018 6.5878 17.617-4.6276 15.657-8.7126-1.9528-3.2992-8.2243-2.5128-11.49-0.50507z" fill="#eae2bf" stroke="#000" stroke-linecap="round" stroke-linejoin="round" stroke-width="1.5"/> <path d="m438.03 799.45c-2.7508 1.7444-6.056 6.1853-4.1669 8.8388 2.2833 3.2072 8.5248 1.005 11.743-1.2627 2.2928-1.6156 5.1524-5.2001 3.6618-7.5761-1.9907-3.1732-8.0744-2.0061-11.238 0z" fill="#eae2bf" stroke="#000" stroke-linecap="round" stroke-linejoin="round" stroke-width="1.5"/> <path d="m441.44 804.12c-2.6099 1.98-5.3927 6.6104-3.4093 9.2176 2.1226 2.7902 7.5275 1.0061 10.48-0.88389 3.0164-1.9306 7.2299-6.3249 5.3033-9.3439-2.2263-3.4887-9.0772-1.4911-12.374 1.0102z" fill="#eae2bf" stroke="#000" stroke-linecap="round" stroke-linejoin="round" stroke-width="1.5"/> <path d="m446.11 808.54c-0.71284 0.5226-4.9303 6.1836-3.1567 8.7126 2.2475 3.2048 8.5582 2.2757 11.743 0 2.6425-1.8882 5.1012-6.6164 3.1567-9.2176-2.3458-3.1381-9.5964-1.0686-11.743 0.50507z" fill="#eae2bf" stroke="#000" stroke-linecap="round" stroke-linejoin="round" stroke-width="1.5"/> <path d="m450.28 812.45c-3.1653 2.0284-6.5908 7.6066-4.1669 10.48 2.7464 3.256 9.1215-0.0583 12.501-2.6517 2.1354-1.6388 5.0081-4.8664 3.6618-7.1973-2.0027-3.4672-8.6243-2.7917-11.996-0.63135z" fill="#eae2bf" stroke="#000" stroke-linecap="round" stroke-linejoin="round" stroke-width="1.5"/> <path d="m450.28 826.59c2.1406 2.8666 7.7165 0.46724 10.607-1.6415 2.585-1.8861 6.1035-5.9477 4.2932-8.5863-1.9974-2.9113-7.6545-1.0194-10.543 1.0102-2.7808 1.9536-6.3897 6.4947-4.3563 9.2176z" fill="#eae2bf" stroke="#000" stroke-linecap="round" stroke-linejoin="round" stroke-width="1.5"/> <path d="m454.06 829.88c2.1395 2.9706 7.6958 0.20105 10.859-1.6415 2.5902-1.5087 6.8873-4.3855 5.5558-7.0711-1.7857-3.6017-8.6463-1.9358-12.059 0.1894-2.7084 1.6867-6.221 5.9341-4.3563 8.5232z" fill="#eae2bf" stroke="#000" stroke-linecap="round" stroke-linejoin="round" stroke-width="1.5"/> <path d="m462.52 824.83c-2.8038 2.0958-5.5943 7.3462-3.283 9.9753 2.0656 2.3496 6.5722-0.0976 9.2176-1.7678 3.004-1.8965 8.9892-6.2495 6.3135-8.5863-2.4052-2.1006-8.9764-2.0667-12.248 0.37881z" fill="#eae2bf" stroke="#000" stroke-linecap="round" stroke-linejoin="round" stroke-width="1.5"/> <path d="m466.19 828.99c-2.7199 1.9215-5.655 6.7753-3.5355 9.3439 2.365 2.866 7.9274 0.21691 10.985-1.894 2.4535-1.6936 6.0511-5.1292 4.5457-7.7024-2.0196-3.452-8.7291-2.0551-11.996 0.25254z" fill="#eae2bf" stroke="#000" stroke-linecap="round" stroke-linejoin="round" stroke-width="1.5"/> <path d="m469.85 832.53c-2.8635 1.8469-6.368 6.4224-4.4194 9.2176 2.055 2.9479 7.684 0.89174 10.733-1.0102 2.8051-1.7498 6.825-5.5939 5.177-8.46-1.9096-3.3212-8.271-1.824-11.49 0.25253z" fill="#eae2bf" stroke="#000" stroke-linecap="round" stroke-linejoin="round" stroke-width="1.5"/> <path d="m468.84 845.91c1.6584 3.5439 7.9041 3.9635 11.49 2.3991 3.5132-1.5325 7.5253-6.3617 5.9346-9.849-1.7287-3.79-8.5681-3.9745-12.311-2.1466-3.257 1.5906-6.6502 6.3134-5.1139 9.5965z" fill="#eae2bf" stroke="#000" stroke-linecap="round" stroke-linejoin="round" stroke-width="1.5"/> <path d="m478.69 840.23c-3.9446 0.59962-9.2564 4.2549-8.7126 8.2075 0.55688 4.0472 6.8328 6.374 10.859 5.6821 3.9625-0.68089 8.9442-4.8863 8.2075-8.8388-0.70368-3.7751-6.5576-5.6279-10.354-5.0508z" fill="#eae2bf" stroke="#000" stroke-linecap="round" stroke-linejoin="round" stroke-width="1.5"/> <path d="m481.34 846.04c-3.6711-0.44016-9.7609 0.62531-10.228 4.2932-0.44749 3.5157 4.936 6.0637 8.46 6.4397 3.651 0.3896 9.6122-1.0182 9.9753-4.672 0.33625-3.3843-4.8307-5.656-8.2075-6.0609z" fill="#eae2bf" stroke="#000" stroke-linecap="round" stroke-linejoin="round" stroke-width="1.5"/> <path d="m481.72 851.47c-3.0682-1.2157-8.4211-1.9652-9.849 1.0102-1.4094 2.9366 2.3361 6.8638 5.3033 8.2075 3.4106 1.5446 9.8102 1.8691 11.112-1.6415 1.1616-3.1334-3.4592-6.3451-6.566-7.5762z" fill="#eae2bf" stroke="#000" stroke-linecap="round" stroke-linejoin="round" stroke-width="1.5"/> <path d="m481.09 857.02c-2.7512-1.8731-7.753-4.2269-9.849-1.6415-2.1067 2.5986 0.99453 7.3249 3.6618 9.3439 3.0688 2.323 9.4314 4.3882 11.49 1.1364 1.8381-2.9029-2.4632-6.9051-5.3033-8.8388z" fill="#eae2bf" stroke="#000" stroke-linecap="round" stroke-linejoin="round" stroke-width="1.5"/> <path d="m468.71 858.67c-1.9866 2.3892 1.5203 6.4793 3.9143 8.46 2.6742 2.2125 7.9959 5.2845 10.102 2.5254 2.0065-2.6292-2.2371-6.6366-4.8614-8.6494-2.4989-1.9167-7.141-4.7575-9.1545-2.336z" fill="#eae2bf" stroke="#000" stroke-linecap="round" stroke-linejoin="round" stroke-width="1.5"/> <path d="m404.82 784.55c-3.2334 0.16537-8.5433 1.9438-8.7126 4.2932-0.13512 1.8756 6.8317 2.7787 10.354 2.3991 2.6394-0.28441 7.9727-1.0111 7.8287-3.6618-0.13627-2.5086-6.3313-3.191-9.4702-3.0304z" fill="#eae2bf" stroke="#000" stroke-linecap="round" stroke-linejoin="round" stroke-width="1.5"/> <path d="m395.85 793.76c0.26842 3.5466 6.4273 4.0377 9.9753 3.7881 3.3073-0.23268 8.8465-1.4854 8.7126-4.7982-0.1389-3.4353-5.9725-4.3871-9.407-4.23-3.5489 0.16235-9.5489 1.6976-9.2808 5.2402z" fill="#eae2bf" stroke="#000" stroke-linecap="round" stroke-linejoin="round" stroke-width="1.5"/> <path d="m396.79 798.52c0.34154 3.6262 6.7351 3.8656 10.357 3.4821 2.9592-0.31327 7.8601-1.5834 7.6786-4.5536-0.20122-3.2923-5.7681-4.1364-9.0625-3.9732-3.4271 0.16973-9.295 1.6284-8.9732 5.0446z" fill="#eae2bf" stroke="#000" stroke-linecap="round" stroke-linejoin="round" stroke-width="1.5"/> <path d="m405.27 798.26c-3.7726-0.0236-10.035 1.8583-9.8214 5.625 0.21258 3.7534 6.6101 4.7697 10.357 4.4643 3.1351-0.25554 8.0046-1.9443 7.9464-5.0893-0.0607-3.2815-5.2002-4.9795-8.4821-5z" fill="#eae2bf" stroke="#000" stroke-linecap="round" stroke-linejoin="round" stroke-width="1.5"/> <path d="m395.27 809.06c0.28807 3.6473 6.5309 4.3908 10.179 4.1071 3.0075-0.23385 7.8518-1.6275 7.7679-4.6428-0.0954-3.4266-5.6806-4.8764-9.1072-4.7768-3.4362 0.0998-9.1099 1.8855-8.8393 5.3125z" fill="#eae2bf" stroke="#000" stroke-linecap="round" stroke-linejoin="round" stroke-width="1.5"/> <path d="m404.64 808.61c-3.7506 0.0838-10.006 2.0696-9.6429 5.8036 0.31242 3.2141 5.884 3.5031 9.1071 3.3036 3.3345-0.20639 8.886-1.2129 8.9286-4.5536 0.0406-3.1826-5.2108-4.6247-8.3929-4.5536z" fill="#eae2bf" stroke="#000" stroke-linecap="round" stroke-linejoin="round" stroke-width="1.5"/> <path d="m404.11 813.17c-3.9354-9e-3 -10.247 1.8759-10 5.8036 0.24571 3.9119 6.7254 5.2178 10.625 4.8214 3.2116-0.32641 8.0637-2.3097 7.9464-5.5357-0.12067-3.3206-5.2486-5.0819-8.5714-5.0893z" fill="#eae2bf" stroke="#000" stroke-linecap="round" stroke-linejoin="round" stroke-width="1.5"/> <path d="m403.84 818.61c-3.9611-5e-3 -10.513 2.0286-10.268 5.9821 0.23401 3.7796 6.6693 4.7341 10.446 4.4643 3.3704-0.24072 8.6886-1.889 8.6607-5.2679-0.0282-3.4147-5.4244-5.1744-8.8393-5.1786z" fill="#eae2bf" stroke="#000" stroke-linecap="round" stroke-linejoin="round" stroke-width="1.5"/> <path d="m403.04 824.24c-3.9916 0.26072-10.272 3.1926-9.6429 7.1429 0.57716 3.6248 6.7972 3.8772 10.446 3.4821 3.4101-0.3692 8.8913-1.8383 8.8393-5.2679-0.0558-3.6766-5.9737-5.5968-9.6428-5.3571z" fill="#eae2bf" stroke="#000" stroke-linecap="round" stroke-linejoin="round" stroke-width="1.5"/> <path d="m403.21 829.15c-3.9438 0.40849-10.207 4.125-9.6429 6.9643 0.80036 4.0262 7.7553 4.3506 11.786 3.5714 3.2219-0.62284 8.0992-2.9063 7.6786-6.1607-0.45943-3.5544-6.2566-4.7442-9.8214-4.375z" fill="#eae2bf" stroke="#000" stroke-linecap="round" stroke-linejoin="round" stroke-width="1.5"/> <path d="m394.11 842.18c0.77344 3.5135 10.089 3.3929 10.357 3.0357s9.3884-3.4323 8.75-7.1428c-0.61374-3.5672-6.6669-4.3348-10.223-3.6607-3.8649 0.73251-9.7296 3.9262-8.8839 7.7679z" fill="#eae2bf" stroke="#000" stroke-linecap="round" stroke-linejoin="round" stroke-width="1.5"/> <path d="m402.5 839.33c-3.4165 1.0822-8.7308 5.4421-7.5893 8.8393 1.1694 3.4801 7.7135 2.325 11.25 1.3393 3.5311-0.98419 9.0475-3.1487 8.125-6.6964-1.0156-3.9056-7.9386-4.7007-11.786-3.4821z" fill="#eae2bf" stroke="#000" stroke-linecap="round" stroke-linejoin="round" stroke-width="1.5"/> <path d="m404.38 844.06c-4.0002 1.2613-10.147 5.5653-8.3929 9.375 1.6562 3.5963 11.071 1e-5 11.071-0.35714s8.5603-2.4752 7.7679-5.7143c-0.90064-3.6815-6.8318-4.4433-10.446-3.3036z" fill="#eae2bf" stroke="#000" stroke-linecap="round" stroke-linejoin="round" stroke-width="1.5"/> <path d="m404.55 848.52c-3.9429 1.2967-9.0145 7.0988-7.1428 10.804 1.3968 2.7647 8.6607-0.98213 8.6607-1.4286s9.2094-3.1683 8.4821-6.6964c-0.69669-3.3798-6.7219-3.7566-10-2.6786z" fill="#eae2bf" stroke="#000" stroke-linecap="round" stroke-linejoin="round" stroke-width="1.5"/> <path d="m399.38 863.52c2.1923 3.1608 8.0968-0.0733 11.339-2.1429 2.4993-1.5952 6.571-4.6144 5.1786-7.2321-1.7268-3.2464-7.849-1.5374-11.027 0.3125-3.0525 1.777-7.5041 6.1602-5.4911 9.0625z" fill="#eae2bf" stroke="#000" stroke-linecap="round" stroke-linejoin="round" stroke-width="1.5"/> <path d="m401.34 869.68c2.141 2.6104 7.1827 0.2532 10-1.6071 3.0249-1.9974 7.6639-6.0854 5.8036-9.1964-2.0747-3.4696-8.861-1.5733-12.098 0.84822-2.8354 2.1209-5.9508 7.2176-3.7054 9.9554z" fill="#eae2bf" stroke="#000" stroke-linecap="round" stroke-linejoin="round" stroke-width="1.5"/> <path d="m405.62 877.27c2.8998 2.168 7.2869-2.2507 9.6429-5 2.1863-2.5513 5.512-7.1021 3.2143-9.5536-2.4956-2.6626-8.0895 0.14551-10.58 2.8125-2.7211 2.9135-5.4697 9.3539-2.2768 11.741z" fill="#eae2bf" stroke="#000" stroke-linecap="round" stroke-linejoin="round" stroke-width="1.5"/> <path d="m409.64 881.83c3.2885 1.9642 7.6468-2.9808 9.6429-6.25 1.6991-2.7828 3.6761-7.8955 0.98214-9.7322-3.0134-2.0545-7.7071 1.9667-9.7322 5-2.0393 3.0546-4.046 9.0988-0.89285 10.982z" fill="#eae2bf" stroke="#000" stroke-linecap="round" stroke-linejoin="round" stroke-width="1.5"/> <path d="m413.84 876.65c-1.0562 3.4285-0.85302 9.4361 2.5893 10.446 3.5352 1.0376 6.9452-3.4161 8.2143-6.875 1.2996-3.5422 2.096-10.618-1.4286-11.964-3.918-1.4971-8.1402 4.3844-9.375 8.3929z" fill="#eae2bf" stroke="#000" stroke-linecap="round" stroke-linejoin="round" stroke-width="1.5"/> <path d="m423.04 888.97c2.1859 0.58812 5.2678-4.2857 5.2678-4.2857l-1.9643-2.4107s-0.79836 3.4019-2.3214 2.4107c-1.32-2.426 0.66589-10.456 1.875-10.268 1.1194 0.0453 1.4286 4.1072 1.4286 4.1072l1.875-3.6607s-1.2748-5.1855-3.125-5.3571c-3.6181-0.33572-6.6803 4.4674-7.3661 8.0357-0.76889 4.0006 0.39644 10.37 4.3304 11.429z" fill="#eae2bf" stroke="#000" stroke-linecap="round" stroke-linejoin="round" stroke-width="1.5"/> <path d="m427.95 890.4c3.47 0.50823 4.7614-5.6369 5.2679-9.1072 0.49939-3.4215 1.0103-9.5862-2.4107-10.089-3.4569-0.50833-4.7578 5.6058-5.2678 9.0625-0.50686 3.435-1.0249 9.6307 2.4107 10.134z" fill="#eae2bf" stroke="#000" stroke-linecap="round" stroke-linejoin="round" stroke-width="1.5"/> <path d="m430.09 881.29c-0.37451 3.458 0.71869 9.4969 4.1964 9.5536 3.1013 0.0506 3.8919-5.2938 4.0178-8.3929 0.5976-14.701-7.1375-11.103-8.2143-1.1607z" fill="#eae2bf" stroke="#000" stroke-linecap="round" stroke-linejoin="round" stroke-width="1.5"/> <path d="m438.66 873.43c-3.538 0.33344-4.2669 6.3732-3.9286 9.9107 0.316 3.3039 2.055 8.7267 5.3572 8.3928 3.5524-0.35918 4.1935-6.4471 3.8393-10-0.32522-3.2617-2.0044-8.6111-5.2678-8.3036z" fill="#eae2bf" stroke="#000" stroke-linecap="round" stroke-linejoin="round" stroke-width="1.5"/> <path d="m441.52 873.97c-2.0929 0.76154-2.4829 7.2226-1.4286 10.625 0.87431 2.8214 3.9532 6.8987 6.6964 5.8036 3.1382-1.2528 2.111-6.9044 0.98214-10.089-0.99136-2.7969-3.4615-7.354-6.25-6.3393z" fill="#eae2bf" stroke="#000" stroke-linecap="round" stroke-linejoin="round" stroke-width="1.5"/> <path d="m447.59 873.61c-3.1951 1.1783-2.9134 6.9443-1.6072 10.089 1.2674 3.0514 5.1193 7.3566 8.0357 5.8036 3.1541-1.6796 1.1938-7.495-0.35714-10.714-1.1545-2.3964-3.5758-6.099-6.0714-5.1786z" fill="#eae2bf" stroke="#000" stroke-linecap="round" stroke-linejoin="round" stroke-width="1.5"/> <path d="m451.88 883.34c1.6488 2.6114 5.6851 6.058 8.2143 4.2857 2.5818-1.8092 0.29582-6.6273-1.25-9.375s-4.5464-7.35-7.3661-5.9375c-3.2885 1.6473-1.5618 7.9168 0.40179 11.027z" fill="#eae2bf" stroke="#000" stroke-linecap="round" stroke-linejoin="round" stroke-width="1.5"/> <path d="m455.8 870.4c-3.1322 1.7893-1.3711 7.799 0.625 10.804 1.8708 2.816 6.3926 6.4795 9.1072 4.4643 2.6636-1.9774 0.18643-7.0308-1.6072-9.8214-1.7629-2.7429-5.2939-7.0638-8.125-5.4464z" fill="#eae2bf" stroke="#000" stroke-linecap="round" stroke-linejoin="round" stroke-width="1.5"/> <path d="m462.5 878.34c1.8732 2.5084 5.7237 6.4504 8.2143 4.5536 2.9231-2.2262-0.32413-7.8214-2.5893-10.714-1.8301-2.3372-5.5473-5.915-7.9018-4.1072-2.7806 2.1351 0.17919 7.4589 2.2768 10.268z" fill="#eae2bf" stroke="#000" stroke-linecap="round" stroke-linejoin="round" stroke-width="1.5"/> <path d="m466.79 875.76c2.1983 2.2106 6.5463 5.5089 8.75 3.3036 2.4967-2.4985-1.2881-7.3779-3.75-9.9107-2.2093-2.2729-6.5148-5.8182-8.7946-3.6161-2.6144 2.5253 1.2316 7.6458 3.7946 10.223z" fill="#eae2bf" stroke="#000" stroke-linecap="round" stroke-linejoin="round" stroke-width="1.5"/> <path d="m466.31 862.07c-2.4278 2.3153 1.6145 6.9006 4.0406 9.2176 2.1198 2.0245 6.2306 5.3209 8.2075 3.1567 2.0884-2.2862-1.9175-6.141-4.1038-8.3338-2.1397-2.1461-5.9512-6.1321-8.1444-4.0406z" fill="#eae2bf" stroke="#000" stroke-linecap="round" stroke-linejoin="round" stroke-width="1.5"/> <path d="m396.25 783.61c0.37478 3.3722 6.5505 2.7917 9.9107 2.3214 2.6653-0.373 7.3085-1.2494 7.0536-3.9286-0.27011-2.8389-5.2796-2.8681-8.125-2.6786-3.2672 0.2176-9.201 1.0313-8.8393 4.2857z" fill="#eae2bf" stroke="#000" stroke-linecap="round" stroke-linejoin="round" stroke-width="1.5"/> <path d="m396.07 778.88c0.16548 3.3016 6.007 3.9039 9.2857 3.4821 3.0712-0.39511 8.2278-2.3272 7.5893-5.3571-0.65118-3.0898-6.1546-2.2839-9.2857-1.875-2.798 0.36535-7.7305 0.9318-7.5893 3.75z" fill="#eae2bf" stroke="#000" stroke-linecap="round" stroke-linejoin="round" stroke-width="1.5"/> <path d="m394.64 772.54c-0.12278 3.8585 5.9388 5.2555 9.7628 4.7258 3.5662-0.49397 9.3739-3.3242 8.3622-6.7794-0.90214-3.0811-6.2752-2.1553-9.4643-1.7857-3.1368 0.36358-8.5603 0.68303-8.6607 3.8393z" fill="#eae2bf" stroke="#000" stroke-linecap="round" stroke-linejoin="round" stroke-width="1.5"/> <path d="m399.91 763.61s-2.9022 0.98382-2.7679 2.1429c0.21475 1.8522 3.2269 2.4122 5.0893 2.3214 2.3709-0.11557 4.8408-1.5985 6.1607-3.5714 1.0472-1.5653-4.49-2.8633-12.232-4.7321l-2.3214-2.1429c0.6817-2.532 19.913 0.98216 19.464 6.9643-0.11077 1.4771-0.61751 3.0923-1.6964 4.1072-2.3378 2.199-5.9003 3.2555-9.1071 3.125-3.3425-0.13604-6.8946 0.0169-8.5651-2.8814-0.65815-1.1419-0.82039-3.9104-0.18492-5.065 0.75525-1.3723 3.6607-2.9464 3.6607-2.9464z" fill="#eae2bf" stroke="#000" stroke-linecap="round" stroke-linejoin="round" stroke-width="1.5"/> <path d="m394.38 756.47s-1.874 3.4178-1.4376 4.9017c1.0103 3.4351 5.108 4.3945 8.6697 4.0268 3.9994-0.41283 8.9616-3.59 9.375-7.5893 0.30011-2.9036-2.9737-5.3867-5.5357-6.7857-2.3134-1.2633-5.234-1.1524-7.8571-0.89286-1.6485 0.1631-3.8393 1.6072-3.8393 1.6072l3.125 1.875s2.1966-1.3973 3.3929-1.25c2.4661 0.30359 5.616 1.7722 6.1607 4.1964 0.34802 1.5488-1.0925 3.2227-2.4107 4.1071-4.38 1.1117-7.5921-0.43347-9.6429-4.1964z" fill="#eae2bf" stroke="#000" stroke-linecap="round" stroke-linejoin="round" stroke-width="1.5"/> <path d="m394.38 750.4c-5.0255 4.6315 3.189 8.1233 6.9643 8.2143 3.608 0.0869 6.44-2.4909 8.0357-5.2679 0.84638-1.4729 0.86969-3.5007 0.26786-5.0893-0.87233-2.3026-3.75-4.7322-3.75-4.7322l-1.4286 3.5714s2.3224 2.6092 1.875 4.0179c-0.65366 2.0582-3.4657 3.246-5.625 3.2143-2.511-0.0369-6.3393-3.9286-6.3393-3.9286z" fill="#eae2bf" stroke="#000" stroke-linecap="round" stroke-linejoin="round" stroke-width="1.5"/> <path d="m402.87 746.26s-1.8563-1.9568-2.868-1.9336c-1.1073 0.0254-3.0208 0.60098-2.8571 1.6964 0.18557 1.2422 2.4243 1.1139 3.6607 0.89285 1.6252-0.2905 4.0705-1.1173 4.1072-2.7678 0.11418-5.1401-8.3807-7.0506-8.4057-5.5241l-2.2424-2.9681c8.4179-3.4782 17.08 5.2594 13.862 11.617-1.3488 2.4352-4.5807 3.53-7.3214 4.0178-2.1631 0.38508-4.6349 0.15013-6.5178-0.98214-1.714-1.0307-2.4442-2.5437-2.0562-4.5058 0.42482-2.1481 1.9909-3.1562 4.1098-3.7085 1.7577-0.45817 3.7734-0.52877 5.4464 0.17858 1.0663 0.45081 2.9419 1.9688 2.9419 1.9688 0.38662 1.0503-1.0017 1.4349-1.8597 2.0184z" fill="#eae2bf" stroke="#000" stroke-linecap="round" stroke-linejoin="round" stroke-width="1.5"/> <path d="m396.61 734.86s-0.70564 1.6584-0.3788 2.3991c0.47834 1.084 1.7826 1.9365 2.9673 1.9572 2.3421 0.0409 5.2125-1.976 5.5558-4.2932 0.42165-2.8456-2.583-4.8728-5.3033-5.8084-1.335-0.45912-4.1669 0.75761-4.1669 0.75761l-1.1996-2.3991s3.8345-1.5554 5.8084-1.1364c2.5422 0.53961 5.2859 2.3206 6.8185 4.4194 1.2793 1.7519 2.3863 4.3003 1.5784 6.3134-1.2787 3.1861-5.329 4.9116-8.7126 5.4927-2.4454 0.41997-5.6488 0.24509-7.2605-1.6415-0.83561-0.97817-0.89893-2.7389-0.25254-3.8512 0.8465-1.4567 4.5457-2.2097 4.5457-2.2097z" fill="#eae2bf" stroke="#000" stroke-linecap="round" stroke-linejoin="round" stroke-width="1.5"/> <path d="m399.89 733.85c2.77 0.10176 7.6466-2.338 8.6526-5.8772 0.55461-1.9511-0.92892-5.1021-2.461-6.4315-1.0178-0.88314-1.5601-0.54447-2.841-0.12627-1.0092 0.32949-3.5987 1.3258-3.0936 1.5784s4.2048 0.99482 3.9775 3.9143c-0.13844 1.7776-2.8469 2.4413-4.6088 2.7148-4.8714 0.75623-5.2371-2.3053-4.2578-2.6819-4.7842-0.23815-4.8199 3.6521-2.0309 5.7023 1.4376 1.0567 4.8434 1.1403 6.663 1.2071z" fill="#eae2bf" stroke="#000" stroke-linecap="round" stroke-linejoin="round" stroke-width="1.5"/> <path d="m393.9 719.77c-0.95553 0.48733-2.2172 1.3924-2.0203 2.5254 0.35205 2.0264 2.9371 3.974 5.5558 4.23 3.59 0.35101 6.1326-1.099 7.7522-2.8417 2.4417-2.6272 2.8666-4.9767 2.2862-7.7649-0.72797-3.4969-2.6512-3.3021-4.3563-3.9775 0 0-3.9684 2.4191-2.7779 2.4622 1.8943 0.0687 3.5275 2.9364 3.2199 4.0406-0.83475 2.9966-5.3425 3.9988-7.1107 3.5393-1.5598-0.40527 3.0706-1.9414 6.1953-1.74-1.6852-0.72494-6.2171-1.7623-8.7441-0.4735z" fill="#eae2bf" stroke="#000" stroke-linecap="round" stroke-linejoin="round" stroke-width="1.5"/> <path d="m401.6 710.68c-1.7642-1.6392-4.0727-1.4915-5.8715-1.0102-1.921 0.51405-4.7508 1.8045-4.6088 3.7881 0.16512 2.3076 3.6293 3.4049 5.9346 3.5987 2.504 0.21046 5.2649-0.96796 7.0079-2.7779 1.796-1.865 3.2745-4.8269 2.5885-7.3236-0.43549-1.5849-6.3206-8.4456-7.955-8.2706-1.0883 0.11653-3.4682 2.7902-2.5254 3.3461 0.6794 0.40056 6.0153 4.1768 6.124 7.6393 0.0367 1.1696-1.2955 2.5525-2.2097 3.283-0.77971 0.62298-1.6537 0.77173-2.6517 0.75761-0.65874-9e-3 -1.925-0.24413-1.7678-0.88388 0.27136-1.1037 2.973-0.55714 3.4093 0.0631 0.71929 0.7255 3.0701-1.7375 2.5254-2.2097z" fill="#eae2bf" stroke="#000" stroke-linecap="round" stroke-linejoin="round" stroke-width="1.5"/> <path d="m395.22 705.31c2.5225 1.117 5.7186-1.5365 6.4397-2.9042 0.87119-1.6523-3.5228-2.98-2.0203-3.8512 1.6674-0.96679 2.6413-3.3616 4.4194-3.0936 1.4648 0.22078 2.1532 3.3592 1.9572 5.3664-0.33833 3.4648-3.4871 6.6592-6.6923 8.0181-2.1176 0.89783-4.93 0.71199-6.8817-0.50507-1.5926-0.99314-2.8878-2.985-2.841-4.8614s3.0936-4.7351 3.0936-4.7351l4.672 2.6832c-1.5877-0.24426-5.5608 2.3709-2.1466 3.8828z" fill="#eae2bf" stroke="#000" stroke-linecap="round" stroke-linejoin="round" stroke-width="1.5"/> <path d="m396.17 693.88s-2.9007 1.9789-2.3991 3.2199c0.43952 1.0874 2.3867 1.3095 3.5355 1.0733 1.4181-0.29165 3.1828-1.4543 3.5987-2.8411 0.31122-1.0377-1.5697-1.9118-1.3258-2.9673 0.33965-1.4702 2.0079-3.2675 3.4724-2.9042 2.052 0.5091 2.8674 3.8098 2.3991 5.8715-0.60383 2.6588-3.513 4.5221-6.0609 5.4927-2.36 0.89902-5.2868 1.0032-7.5761-0.0631-1.556-0.72479-2.3635-2.2006-2.4622-3.9143-0.0802-1.3927 0.45244-2.4994 1.4521-3.4724 0.73215-0.71262 1.5671-1.6676 2.5885-1.6415 1.2375 0.0317 3.0305 2.1466 3.0305 2.1466" fill="#eae2bf" stroke="#000" stroke-linecap="round" stroke-linejoin="round" stroke-width="1.5"/> <path d="m395.54 687.51c-3.5922 0.779-0.73369 4.1374 1.4559 3.9781 2.4978-0.1817 5.1648-2.6146 5.1751-5.119 0.0226-5.4997-3.0769-12.457-2.0528-18.873 1.0682-6.6922 4.286-15.656 8.3031-18.755 1.7208-0.26888 3.2835 2.0752 3.5987 3.7881-1.3939 0.0297-6.0681 7.9844-6.7139 14.063-0.82206 7.7374 2.4908 13.166 2.1267 18.338-0.31798 4.5174-5.1548 10.266-9.6812 10.405-3.6202 0.11047-8.6782-3.2032-8.46-6.8185 0.17481-2.8969 4.4906-4.4213 7.3867-4.6088 1.8701-0.12111 4.2854 0.579 5.471 1.8896 0.69928 2.4437-3.6188 4.3493-1.9208 3.8834 0.64964-0.17823-1.7518-2.8067-4.6886-2.1698z" fill="#eae2bf" stroke="#000" stroke-linecap="round" stroke-linejoin="round" stroke-width="1.5"/> <path d="m430.83 635.13c-4.0214 1.407-12.929 3.8873-21.721 11.337-4.4746 3.7911 1.613 8.7923 4.6429 6.25 4.2204-3.5412 8.563-6.3214 14.444-8.0769" fill="#eae2bf" stroke="#000" stroke-linecap="round" stroke-linejoin="round" stroke-width="1.5"/> <path d="m447.37 693.38c-4.6942 0.58007-7.0752 1.4906-9.4702 2.3991-1.9638 0.99013-0.88082 6.2572 1.0102 6.1872 2.1746-0.44063 5.3788-0.79344 8.2075-0.63135" fill="#eae2bf" stroke="#000" stroke-linecap="round" stroke-linejoin="round" stroke-width="1.5"/> <path d="m496.72 640.74c-5.0273-0.23292-10.065 3.027-12.861 6.8012-4.2659 5.757-39.03 35.136-56.063 26.769-2.7324-1.3422-2.4209-6.7326-2.2728-8.5863 1.3979-17.506 3.1633-26.316 7.3236-35.608 0.78025-1.7427 2.889-4.5455 6.1872-5.5558 26.573-8.1401 69.725-15.152 98.195-15.152s71.622 7.0122 98.195 15.152c3.2982 1.0103 5.4069 3.8131 6.1872 5.5558 4.1603 9.2922 5.9257 18.101 7.3236 35.608 0.14802 1.8537 0.45961 7.2441-2.2728 8.5863-17.034 8.3672-51.798-21.012-56.063-26.769-2.7967-3.7742-7.834-7.0341-12.861-6.8012 0 0-26.991 0.091-40.508 0.091s-40.508-0.091-40.508-0.091z" fill="#f2edd7" stroke="#000" stroke-linecap="round" stroke-linejoin="round" stroke-width="2.5"/> <path d="m436.87 625.56c-3.8723 2.1489-2.3554 11.149 2.5086 10.014 33.093-7.7228 73.924-13.214 97.857-13.214s64.764 5.4914 97.857 13.214c4.864 1.1351 6.3809-7.8647 2.5086-10.014" fill="none" stroke="#000" stroke-linecap="round" stroke-linejoin="round"/> <path d="m601.97 788.23c-2.365 3.3604-4.2106 7.5584-8.8439 9.8286-4.4044 2.1581-29.885 3.7881-55.894 3.7881s-51.49-1.63-55.894-3.7881c-4.6333-2.2703-6.479-6.4682-8.8439-9.8286" fill="#e83636" stroke="#000" stroke-linecap="round" stroke-linejoin="round" stroke-width="2"/> <path d="m487.06 638.78-3.8438 4.875 8.3125 0.20312-8.3125-0.20312c-6.0161 7.5056-12.572 15.207-20.438 27.875-9.4723 15.256-13.801 24.9-15.281 13.875 0.11905 12.5-1.8008 25.185 0.34375 37.5 3.0794 17.683 4.1612 32.763 15.812 57.719 2.2735 4.8694 6.0357 7.7415 12.125 8.0938 25.22 1.4587 45.735 3.5312 61.438 3.5312s36.218-2.0725 61.438-3.5312c6.0893-0.35222 9.8515-3.2243 12.125-8.0938 11.651-24.955 12.733-40.035 15.812-57.719 2.1446-12.315 0.2247-25 0.34375-37.5-1.4804 11.025-5.7777 1.3805-15.25-13.875-7.8654-12.668-14.453-20.369-20.469-27.875h0.0312l-3.8438-4.875h-7.0625l1.2188 2.4375c-1.244-0.3434-2.5298-0.52818-3.8125-0.46875 0 0-27.014 0.0937-40.531 0.0937s-40.5-0.0937-40.5-0.0937c-0.31421-0.0146-0.62376-0.012-0.9375 0-0.96938 0.0371-3.3084 2.853-4.25 3.1094l2.5624-5.0781z" fill="#f2edd7" stroke="#000" stroke-linecap="round" stroke-linejoin="bevel" stroke-width="2"/> <path transform="matrix(1 0 0 45.3 0 -31215)" d="m589.28571,704.68359c0,.49312-22.10594.89286-49.375.89286s-49.375-.39974-49.375-.89286 22.10594-.89285 49.375-.89285 49.375.39974 49.375.89285z" fill="#f9f9f9" stroke="#000" stroke-linecap="round" stroke-linejoin="round" stroke-width=".14858"/> <path d="m626.96 685.4c-0.94221 13.472-1.3767 37.166-21.716 76.293-6.9359 5.8351-39.978 6.0609-68.016 6.0609s-61.08-0.22578-68.016-6.0609c-20.339-39.127-20.774-62.821-21.716-76.293" fill="none" stroke="#000" stroke-linecap="round" stroke-linejoin="round" stroke-width="1.25"/> <path d="m521.25 643.08h31.964v6.0714h-31.964z" fill="#ececec" stroke="#000" stroke-linecap="round" stroke-linejoin="round"/> <path d="m493.75 658.61-20.714 93.75 18.393-108.21 2.6786-5.3572 1.6072 3.2143 4.6428-0.35714 1.0714 11.607" fill="#eae2bf" stroke="#000" stroke-linecap="round" stroke-linejoin="round" stroke-width="1.5"/> <path d="m539.91 667c-27.269 0-49.375 17.247-49.375 38.5s22.106 38.469 49.375 38.469 49.375-17.216 49.375-38.469-22.106-38.5-49.375-38.5zm0.65625 2.5c3.7658 0 6.8125 1.8586 6.8125 4.125s-3.0467 4.0938-6.8125 4.0938-6.8125-1.8273-6.8125-4.0938 3.0467-4.125 6.8125-4.125zm-14.688 2.0938c3.2688-1e-3 5.8686 1.3077 6.0625 3.2188 0.22163 2.184-2.7711 4.3328-6.6875 4.7812s-7.2784-0.9722-7.5-3.1562 2.7711-4.3016 6.6875-4.75c0.48955-0.0561 0.97053-0.0937 1.4375-0.0937zm30.219 0.3125c3.696 0 6.6875 1.8586 6.6875 4.125s-2.9915 4.0938-6.6875 4.0938-6.6875-1.8273-6.6875-4.0938 2.9915-4.125 6.6875-4.125zm-44.969 7.5312c0.25025-3e-3 0.5067-5e-3 0.75 0 3.4062 0.068 6.092 1.4054 6.25 3.2812 0.18052 2.1438-3.0025 4.175-7.0938 4.5312s-7.5382-1.1062-7.7188-3.25 2.9712-4.175 7.0625-4.5312c0.25571-0.0223 0.49975-0.0278 0.75-0.0312zm-6.4375 11.938c4.0029 0 7.25 2.102 7.25 4.6875s-3.2471 4.6875-7.25 4.6875-7.25-2.102-7.25-4.6875 3.2471-4.6875 7.25-4.6875zm-0.25 13.531c4.1981 0 7.5938 2.3386 7.5938 5.2188s-3.3956 5.2188-7.5938 5.2188-7.5938-2.3386-7.5938-5.2188 3.3956-5.2188 7.5938-5.2188zm7.5938 11.844c4.2958 0 7.7812 2.4871 7.7812 5.5625s-3.4855 5.5625-7.7812 5.5625-7.7812-2.4871-7.7812-5.5625 3.4855-5.5625 7.7812-5.5625zm47.969 6.9688c4.2714 0 7.7188 2.3836 7.7188 5.3125s-3.4474 5.3125-7.7188 5.3125-7.75-2.3836-7.75-5.3125 3.4786-5.3125 7.75-5.3125zm-34.219 1.6875c4.4178 0 8 2.4871 8 5.5625s-3.5822 5.5938-8 5.5938-8-2.5184-8-5.5938 3.5822-5.5625 8-5.5625zm17.188 2.5625c4.5398 0 8.2188 2.5252 8.2188 5.625s-3.6789 5.5938-8.2188 5.5938-8.2188-2.494-8.2188-5.5938 3.6789-5.625 8.2188-5.625z" fill="#e6e6e6" stroke="#000" stroke-linecap="round" stroke-linejoin="round"/> <path d="m539.3125,673.15625c-.86046-.0194-1.78127.41658-2.25,1.3125a.56618,.56618 0 0,0 1,.53125c.25934-.49572.74138-.72954 1.21875-.71875 .35672.008.65084.0901.8125.21875s.2933.31884.28125.84375c0,.009-.0452.17119-.1875.375s-.36308.45741-.59375.6875c-.46135.46017-.92647.8301-1.1875,1.09375l-1.40625,1.40625a.56501,.56501 0 0,0 .40625.9375h3.3125a.56501,.56501 0 1,0 0-1.125h-1.96875l.4375-.40625c.10992-.11103.70266-.61021 1.21875-1.125 .25806-.25739.51418-.51954.71875-.8125s.36573-.59659.375-1c.0176-.76538-.23607-1.39067-.6875-1.75s-1.00884-.45765-1.5-.46875zm15.3125,1.59375a.56501,.56501 0 0,0 -.375.21875l-.84375,1.03125a.56618,.56618 0 0,0 .71875.875v4.28125a.57813,.57813 0 1,0 1.15625,0v-5.84375a.56501,.56501 0 0,0 -.59375-.5625 .56501,.56501 0 0,0 -.0625,0zm-31.40625.5625c-.43776.00023-.92299.13716-1.40625.40625a.56588,.56588 0 0,0 .5625.96875c.46616-.25957.80189-.29881 1.03125-.25s.36646.19264.46875.375c.20458.36474.19875.94257-.375,1.34375a.56501,.56501 0 0,0 0,.9375c.60507.39132.70219,1.16109.46875,1.5625-.11672.2007-.28017.31837-.59375.34375s-.82355-.0859-1.5-.53125a.56501,.56501 0 1,0 -.59375.9375c.81663.53767 1.53449.77161 2.1875.71875s1.18545-.41911 1.46875-.90625c.46268-.7956.342-1.87192-.3125-2.625 .56176-.70823.64553-1.63858.25-2.34375-.24644-.43936-.67132-.78974-1.21875-.90625-.13686-.0291-.29159-.0313-.4375-.0312zm-11.78125,7.25a.56501,.56501 0 0,0 -.40625.28125l-2.65625,4.40625a.56501,.56501 0 0,0 .46875.84375h2.09375v.75a.56501,.56501 0 1,0 1.125,0v-.75h.125a.56501,.56501 0 1,0 0-1.125h-.125v-3.84375a.56501,.56501 0 0,0 -.5625-.5625 .56501,.56501 0 0,0 -.0625,0zm-.5,2.59375v1.8125h-1.09375l1.09375-1.8125zm-8.3125,10.1875a.56501,.56501 0 0,0 -.5.46875l-.5,2.65625a.56501,.56501 0 0,0 1,.4375l.0937-.0937c.62757-.012 1.08318.0521 1.34375.15625 .2981.11912.37325.23388.4375.375 .12535.27534.033.72121-.0312,1.125-.0106.0129-.0488.15128-.125.25-.10166.13159-.26178.25939-.4375.34375-.35144.16874-.82307.24702-1.75-.53125a.57622,.57622 0 1,0 -.75.875c1.14477.96117 2.25859,1.04346 3,.6875 .3707-.17798.65384-.44167.84375-.6875s.29734-.42164.34375-.71875c.0316-.2024.29663-1.02379-.0625-1.8125-.17956-.39436-.54226-.76087-1.0625-.96875-.40304-.16106-.91561-.21214-1.53125-.21875l.21875-1.21875h2.28125a.56501,.56501 0 1,0 0-1.125h-2.75a.56501,.56501 0 0,0 -.0625,0zm2.375,12.875a.56501,.56501 0 0,0 -.4375.28125l-2.0625,3.40625a.56501,.56501 0 0,0 -.0937.1875c-.13645.29174-.21875.62747-.21875.96875 0,1.2525 1.02875,2.28125 2.28125,2.28125s2.28125-1.02875 2.28125-2.28125-1.00722-2.26966-2.25-2.28125l1-1.6875a.56501,.56501 0 0,0 -.5-.875zm-.53125,3.6875c.64185,0 1.15625.51439 1.15625,1.15625s-.5144,1.15625-1.15625,1.15625-1.15625-.51439-1.15625-1.15625 .51439-1.15625 1.15625-1.15625zm5.875,8.375a.57026,.57026 0 0,0 .1875,1.125h2.65625l-2.5625,5.21875a.57304,.57304 0 1,0 1.03125.5l2.9375-6.03125a.56501,.56501 0 0,0 -.5-.8125h-3.5625a.56501,.56501 0 0,0 -.0625,0 .56566,.56566 0 0,0 -.125,0zm47.6875,7.28125c-1.46571,0-2.65625,1.19054-2.65625,2.65625v2.28125c0,1.46571 1.19054,2.6875 2.65625,2.6875s2.65625-1.22179 2.65625-2.6875v-2.28125c0-1.46571-1.19053-2.65625-2.65625-2.65625zm-32.53125.90625c-1.16337,0-2.125.96165-2.125,2.125 0,.59583.25494,1.11401.65625,1.5-.47139.412-.75,1.01785-.75,1.6875 0,1.23022.98854,2.25 2.21875,2.25s2.25-1.01978 2.25-2.25c0-.66965-.3108-1.2755-.78125-1.6875 .40048-.38599.65625-.90417.65625-1.5 0-1.16335-.96166-2.125-2.125-2.125zm32.53125.21875c.8593,0 1.53125.67196 1.53125,1.53125v2.28125c0,.85929-.67195,1.5625-1.53125,1.5625s-1.53125-.70321-1.53125-1.5625v-2.28125c0-.85929.67195-1.53125 1.53125-1.53125zm-32.53125.90625c.5527,0 1,.44729 1,1 0,.49589-.34123.8914-.8125.96875-.0543-.004-.13228-.0312-.1875-.0312s-.10083.0272-.15625.0312c-.4718-.0773-.84375-.47286-.84375-.96875 0-.55271.44728-1 1-1zm17.4375,2.59375c-1.25251,0-2.28125,1.02875-2.28125,2.28125s1.0072,2.26966 2.25,2.28125l-1,1.6875a.56501,.56501 0 1,0 .9375.59375l2.0625-3.375a.56501,.56501 0 0,0 .0625-.15625 .56501,.56501 0 0,0 0-.0312c.15028-.30344.25-.6407.25-1 0-1.2525-1.02876-2.28125-2.28125-2.28125zm-17.59375.5h.15625 .15625c.54419.0737.96875.52669.96875,1.09375 0,.61958-.50542,1.125-1.125,1.125s-1.09375-.50542-1.09375-1.125c0-.56631.3939-1.01908.9375-1.09375zm17.59375.65625c.64185,0 1.15625.48314 1.15625,1.125s-.5144,1.15625-1.15625,1.15625-1.15625-.51439-1.15625-1.15625 .51438-1.125 1.15625-1.125z"/> <path d="m540.28 667c-26.875 0-48.688 16.421-48.688 36.688s21.813 36.719 48.688 36.719 48.656-16.452 48.656-36.719-21.782-36.688-48.656-36.688zm0.28125 2.5c3.7658 0 6.8125 1.8586 6.8125 4.125s-3.0467 4.0938-6.8125 4.0938-6.8125-1.8273-6.8125-4.0938 3.0467-4.125 6.8125-4.125zm-14.688 2.0938c3.2688-1e-3 5.8686 1.3077 6.0625 3.2188 0.22163 2.184-2.7711 4.3328-6.6875 4.7812s-7.2784-0.9722-7.5-3.1562 2.7711-4.3016 6.6875-4.75c0.48955-0.0561 0.97053-0.0936 1.4375-0.0937zm30.219 0.3125c3.696 0 6.6875 1.8586 6.6875 4.125s-2.9915 4.0938-6.6875 4.0938-6.6875-1.8273-6.6875-4.0938 2.9915-4.125 6.6875-4.125zm-44.969 7.5312c0.25025-3e-3 0.5067-5e-3 0.75 0 3.4062 0.068 6.092 1.4054 6.25 3.2812 0.18052 2.1438-3.0025 4.175-7.0938 4.5312s-7.5382-1.1062-7.7188-3.25 2.9712-4.175 7.0625-4.5312c0.25571-0.0223 0.49975-0.0278 0.75-0.0312zm-6.4375 11.938c4.0029 0 7.25 2.102 7.25 4.6875s-3.2471 4.6875-7.25 4.6875-7.25-2.102-7.25-4.6875 3.2471-4.6875 7.25-4.6875zm-0.25 13.531c4.1981 0 7.5938 2.3386 7.5938 5.2188s-3.3956 5.2188-7.5938 5.2188-7.5938-2.3386-7.5938-5.2188 3.3956-5.2188 7.5938-5.2188zm7.5938 11.844c4.2958 0 7.7812 2.4871 7.7812 5.5625s-3.4855 5.5625-7.7812 5.5625-7.7812-2.4871-7.7812-5.5625 3.4855-5.5625 7.7812-5.5625zm47.969 6.9688c4.2714 0 7.7188 2.3836 7.7188 5.3125s-3.4474 5.3125-7.7188 5.3125-7.75-2.3836-7.75-5.3125 3.4786-5.3125 7.75-5.3125zm-34.219 1.6875c4.4178 0 8 2.4871 8 5.5625s-3.5822 5.5938-8 5.5938-8-2.5184-8-5.5938 3.5822-5.5625 8-5.5625zm17.188 2.5625c4.5398 0 8.2188 2.5252 8.2188 5.625s-3.6789 5.5938-8.2188 5.5938-8.2188-2.494-8.2188-5.5938 3.6789-5.625 8.2188-5.625z" fill="#e6e6e6" stroke="#000" stroke-linecap="round" stroke-linejoin="round" stroke-width=".5"/> <path d="m584.2 725.49 0.75643-1.0657 0.43427-0.36541-0.3034-5.064-21.869 0.61316-0.53633-0.99304 1.0714-4.4643 23.393-0.53572 0.3125 7.5-0.93751 4.4196z" fill="#808080" stroke="#000" stroke-linecap="round" stroke-linejoin="round"/> <path d="m585.67 718.17 0.66965 7.6339 1.0714-4.6429-0.3134-7.5857-23.213 0.53391-1.0938 4.5071z" fill="url(#a)"/> <path d="m580.71 658.61 20.714 93.75-18.393-108.21-2.6786-5.3572-1.6072 3.2143-4.6428-0.35714-1.0714 11.607" fill="#ebe9de" stroke="#000" stroke-linecap="round" stroke-linejoin="round" stroke-width="1.5"/> <path d="m591.24 643.66 14.765 94.329" fill="none" stroke="#000" stroke-linecap="round" stroke-linejoin="round"/> <path d="m591.24 643.68h-8.4364l-2.4495-4.8817" fill="none" stroke="#000" stroke-linecap="round" stroke-linejoin="bevel" stroke-width="2"/> <path d="m501.44 653.25-7.6875 5.375h86.969l-7.6875-5.375z" fill="none" stroke="#000" stroke-linejoin="round" stroke-width="1.5"/> <path d="m556.09 670.53c-3.696 0-6.6875 2.1313-6.6875 4.7812 0 0.0934 0.0239 0.18912 0.0312 0.28125 0.34271-2.0693 3.1912-3.6875 6.6562-3.6875s6.3135 1.6182 6.6562 3.6875c7e-3 -0.0921 0.0312-0.1878 0.0312-0.28125 0-2.65-2.9915-4.7812-6.6875-4.7812z" fill="none" stroke="#000" stroke-linecap="round" stroke-linejoin="bevel" stroke-width=".625"/> <path d="m540.625,668c-3.80064,0-6.875,2.19015-6.875,4.875 0,.11212.0207.20228.0312.3125 .34918-2.06934 3.25084-3.6875 6.78125-3.6875 3.76577,0 6.8125,1.85856 6.8125,4.125 0,.0758.007.14394 0,.21875 .0917-.31646.125-.63314.125-.96875 0-2.68485-3.07436-4.875-6.875-4.875zm1.3125,9.625c-.42379.0522-.86405.0913-1.3125.0937 .45366,0 .88336-.0346 1.3125-.0937z" fill="none" stroke="#000" stroke-linecap="round" stroke-linejoin="bevel" stroke-width=".625"/> <path d="m525.875,670.21875c-.46697.00021-.94795.0281-1.4375.0937-3.91641.52554-6.90913,3.03406-6.6875,5.59375 .002.021-.002.0417 0,.0625 .21258-2.01251 3.05265-3.86508 6.6875-4.28125 3.83482-.43907 7.12501.89361 7.46875,3 .032-.23227.0516-.45277.0312-.6875-.19392-2.23973-2.7937-3.78269-6.0625-3.78125z" fill="none" stroke="#000" stroke-linecap="round" stroke-linejoin="bevel" stroke-width=".625"/> <path d="m511.875,678.0625c-.48659-.0114-.98859-.021-1.5.0312-4.09129.41816-7.24302,2.79655-7.0625,5.3125 .002.0309-.003.0631 0,.0937 .30025-1.95178 3.28911-3.70263 7.0625-4.03125 3.9936-.3478 7.39101,1.03415 7.71875,3.09375 .0337-.21643.047-.43651.0312-.65625-.15796-2.20146-2.84385-3.76398-6.25-3.84375z" fill="none" stroke="#000" stroke-linecap="round" stroke-linejoin="bevel" stroke-width=".625"/> <path transform="matrix(.55877 0 0 23.659 238.58 -15972)" d="m589.28571,704.68359c0,.49312-22.10594.89286-49.375.89286s-49.375-.39974-49.375-.89286 22.10594-.89285 49.375-.89285 49.375.39974 49.375.89285z" fill="#be0000" stroke="#000" stroke-linecap="round" stroke-linejoin="round" stroke-width=".27503"/> <path transform="matrix(.54069 0 0 22.359 248.35 -15056)" d="m589.28571,704.68359c0,.49312-22.10594.89286-49.375.89286s-49.375-.39974-49.375-.89286 22.10594-.89285 49.375-.89285 49.375.39974 49.375.89285z" fill="#e83636" stroke="#000" stroke-linecap="round" stroke-linejoin="round" stroke-width=".28761"/> <path d="m504.6875,689.71875c-4.19814,0-7.59375,2.45076-7.59375,5.5 0,.95289.32115,1.87394.90625,2.65625-.3522-.55053-.5625-1.1798-.5625-1.8125 0-2.58549 3.24713-4.6875 7.25-4.6875s7.25,2.10201 7.25,4.6875c0,.48478-.10073.96648-.3125,1.40625 .42013-.68544.6875-1.45129.6875-2.25 0-3.04924-3.42686-5.5-7.625-5.5zm-2.25,10.78125c.26757.0604.53316.11736.8125.15625-.27813-.0368-.54697-.0996-.8125-.15625zm.8125.15625c.46614.0649.9453.0937 1.4375.0937-.50036,0-.96568-.0314-1.4375-.0937zm1.4375.0937c.50305,0 .99301-.026 1.46875-.0937-.47182.0624-.96839.0937-1.46875.0937z" fill="none" stroke="#000" stroke-linecap="round" stroke-linejoin="bevel" stroke-width=".625"/> <path d="m504.44 703.31c-4.3934 0-7.9688 2.6805-7.9688 6 0 1.0287 0.36587 1.9971 0.96875 2.8438-0.38465-0.6239-0.59375-1.3112-0.59375-2.0312 0-2.8801 3.3956-5.2188 7.5938-5.2188s7.5938 2.3386 7.5938 5.2188c0 0.72003-0.2091 1.4074-0.59375 2.0312 0.60237-0.84634 0.9375-1.8155 0.9375-2.8438 0-3.3195-3.5441-6-7.9375-6z" fill="none" stroke="#000" stroke-linecap="round" stroke-linejoin="bevel" stroke-width=".625"/> <path d="m512.03 714.72c-4.491 0-8.125 2.9189-8.125 6.5312 0 0.90309 0.21351 1.78 0.625 2.5625-0.18571-0.47687-0.28125-0.98073-0.28125-1.5 0-3.0754 3.4855-5.5625 7.7812-5.5625s7.7812 2.4871 7.7812 5.5625c0 0.51927-0.0955 1.0231-0.28125 1.5 0.41149-0.78252 0.625-1.6594 0.625-2.5625 0-3.6124-3.634-6.5312-8.125-6.5312z" fill="none" stroke="#000" stroke-linecap="round" stroke-linejoin="bevel" stroke-width=".625"/> <path d="m525.78 723.38c-4.6131 0-8.3438 2.957-8.3438 6.5938 0 0.90919 0.23358 1.7747 0.65625 2.5625-0.20813-0.49611-0.3125-1.0196-0.3125-1.5625 0-3.0754 3.5822-5.5625 8-5.5625s8 2.4871 8 5.5625c0 0.57663-0.14128 1.1332-0.375 1.6562 0.45745-0.8144 0.71875-1.7082 0.71875-2.6562 0-3.6368-3.7307-6.5938-8.3438-6.5938z" fill="none" stroke="#000" stroke-linecap="round" stroke-linejoin="bevel" stroke-width=".625"/> <path d="m542.97 725.69c-4.5887 0-8.3125 3.0156-8.3125 6.75 0 0.31742 0.0417 0.63172 0.0937 0.9375 0.17241-2.9958 3.7889-5.4062 8.2188-5.4062 4.4613 0 8.0944 2.4432 8.2188 5.4688 0.0591-0.32549 0.0937-0.66114 0.0937-1 0-3.7344-3.7238-6.75-8.3125-6.75z" fill="none" stroke="#000" stroke-linecap="round" stroke-linejoin="bevel" stroke-width=".625"/> <path d="m560 721.62c-4.5154 0-8.1875 2.829-8.1875 6.3438 0 1.0984 0.33943 2.1295 0.96875 3.0312-0.35311-0.60723-0.53125-1.2752-0.53125-1.9688 0-2.9289 3.4786-5.3125 7.75-5.3125s7.7188 2.3836 7.7188 5.3125c0 0.69359-0.17814 1.3615-0.53125 1.9688 0.62932-0.90173 0.96875-1.9329 0.96875-3.0312 0-3.5147-3.6408-6.3438-8.1562-6.3438z" fill="none" stroke="#000" stroke-linecap="round" stroke-linejoin="bevel" stroke-width=".625"/> </g> </svg>